<?xml version="1.0" encoding="UTF-8"?><svg xmlns="http://www.w3.org/2000/svg" xmlns:xlink="http://www.w3.org/1999/xlink" contentScriptType="text/ecmascript" zoomAndPan="magnify" contentStyleType="text/css" viewBox="0 0 375 374.999991" preserveAspectRatio="xMidYMid meet" version="1.0"><defs><clipPath id="clip-0"><path d="M 1 58.640625 L 375 58.640625 L 375 316.640625 L 1 316.640625 Z M 1 58.640625 " clip-rule="nonzero"/></clipPath></defs><path fill="rgb(48.239136%, 78.039551%, 100%)" d="M 369.9375 187.667969 C 369.9375 194.199219 366.796875 200.332031 361.511719 204.148438 L 217.25 308.421875 C 213.769531 310.933594 209.589844 312.28125 205.300781 312.28125 L 86.957031 312.28125 C 79.683594 312.28125 72.960938 308.40625 69.324219 302.105469 L 9.058594 197.847656 C 5.421875 191.542969 5.421875 183.792969 9.058594 177.492188 L 69.324219 73.234375 C 72.960938 66.929688 79.683594 63.054688 86.957031 63.054688 L 205.300781 63.054688 C 209.589844 63.054688 213.769531 64.402344 217.25 66.917969 L 361.496094 171.1875 C 366.796875 175.007812 369.9375 181.140625 369.9375 187.667969 Z M 198.707031 271.585938 L 314.800781 187.667969 L 198.707031 103.75 L 98.722656 103.75 L 50.226562 187.667969 L 98.722656 271.585938 Z M 198.707031 271.585938 " fill-opacity="1" fill-rule="nonzero"/><path fill="rgb(0%, 52.549744%, 100%)" d="M 95.511719 73.234375 L 35.25 177.492188 C 31.609375 183.792969 31.609375 191.542969 35.25 197.847656 L 95.511719 302.105469 C 99.152344 308.40625 105.871094 312.28125 113.160156 312.28125 L 205.300781 312.28125 C 209.589844 312.28125 213.769531 310.933594 217.25 308.421875 L 361.511719 204.148438 C 366.796875 200.332031 369.9375 194.199219 369.9375 187.667969 C 369.9375 181.140625 366.796875 175.007812 361.511719 171.1875 L 217.25 66.917969 C 213.769531 64.402344 209.589844 63.054688 205.300781 63.054688 L 113.160156 63.054688 C 105.871094 63.054688 99.152344 66.929688 95.511719 73.234375 Z M 124.914062 103.75 L 224.894531 103.75 L 341.003906 187.667969 L 224.894531 271.585938 L 98.722656 271.585938 L 50.226562 187.667969 L 98.722656 103.75 Z M 124.914062 103.75 " fill-opacity="1" fill-rule="nonzero"/><g clip-path="url(#clip-0)"><path fill="rgb(19.999695%, 21.179199%, 22.749329%)" d="M 374.300781 187.667969 C 374.300781 195.574219 370.460938 203.054688 364.054688 207.699219 L 219.808594 311.957031 C 215.558594 315.023438 210.542969 316.640625 205.300781 316.640625 L 86.957031 316.640625 C 78.164062 316.640625 69.949219 311.914062 65.542969 304.292969 L 5.277344 200.019531 C 0.859375 192.394531 0.859375 182.929688 5.277344 175.320312 L 65.542969 71.046875 C 69.949219 63.4375 78.164062 58.699219 86.957031 58.699219 L 205.300781 58.699219 C 210.542969 58.699219 215.558594 60.316406 219.792969 63.382812 L 364.054688 167.65625 C 370.460938 172.28125 374.300781 179.761719 374.300781 187.667969 Z M 10.691406 187.667969 C 10.691406 190.4375 11.402344 193.203125 12.839844 195.660156 L 73.105469 299.933594 C 75.945312 304.859375 81.261719 307.925781 86.957031 307.925781 L 205.300781 307.925781 C 208.695312 307.925781 211.933594 306.875 214.691406 304.886719 L 358.9375 200.628906 C 363.085938 197.621094 365.558594 192.777344 365.558594 187.667969 C 365.558594 182.558594 363.085938 177.71875 358.9375 174.710938 L 214.691406 70.449219 C 211.933594 68.464844 208.695312 67.414062 205.300781 67.414062 L 86.957031 67.414062 C 81.261719 67.414062 75.960938 70.480469 73.105469 75.40625 L 12.839844 179.675781 C 11.402344 182.148438 10.691406 184.902344 10.691406 187.667969 Z M 319.179688 187.667969 C 319.179688 189.074219 318.511719 190.378906 317.375 191.203125 L 201.265625 275.121094 C 200.523438 275.660156 199.628906 275.945312 198.707031 275.945312 L 98.722656 275.945312 C 97.160156 275.945312 95.726562 275.105469 94.945312 273.757812 L 46.445312 189.855469 C 45.664062 188.507812 45.664062 186.832031 46.445312 185.484375 L 94.945312 101.578125 C 95.726562 100.230469 97.160156 99.394531 98.722656 99.394531 L 198.707031 99.394531 C 199.628906 99.394531 200.523438 99.691406 201.265625 100.214844 L 317.375 184.132812 C 318.496094 184.957031 319.179688 186.277344 319.179688 187.667969 Z M 197.300781 267.230469 L 307.355469 187.667969 L 197.300781 108.109375 L 101.238281 108.109375 L 55.257812 187.667969 L 101.238281 267.230469 Z M 197.300781 267.230469 " fill-opacity="1" fill-rule="nonzero"/></g><path fill="rgb(48.239136%, 78.039551%, 100%)" d="M 158.675781 141.921875 C 183.96875 141.921875 204.476562 162.402344 204.476562 187.667969 C 204.476562 212.933594 183.96875 233.417969 158.675781 233.417969 C 133.382812 233.417969 112.878906 212.933594 112.878906 187.667969 C 112.878906 162.402344 133.382812 141.921875 158.675781 141.921875 Z M 158.675781 141.921875 " fill-opacity="1" fill-rule="nonzero"/><path fill="rgb(0%, 52.549744%, 100%)" d="M 158.675781 141.921875 C 178.058594 141.921875 193.761719 162.402344 193.761719 187.667969 C 193.761719 212.933594 178.058594 233.417969 158.675781 233.417969 C 139.324219 233.417969 123.59375 212.933594 123.59375 187.667969 C 123.59375 162.402344 139.324219 141.921875 158.675781 141.921875 Z M 158.675781 141.921875 " fill-opacity="1" fill-rule="nonzero"/><path fill="rgb(100%, 100%, 100%)" d="M 158.675781 233.417969 C 183.96875 233.417969 204.476562 212.933594 204.476562 187.667969 C 204.476562 162.417969 183.96875 141.933594 158.675781 141.933594 Z M 158.675781 233.417969 " fill-opacity="1" fill-rule="nonzero"/><path fill="rgb(86.268616%, 90.19928%, 91.758728%)" d="M 193.761719 187.667969 C 193.761719 162.417969 178.058594 141.933594 158.675781 141.933594 L 158.675781 233.417969 C 178.058594 233.417969 193.761719 212.933594 193.761719 187.667969 Z M 193.761719 187.667969 " fill-opacity="1" fill-rule="nonzero"/><path fill="rgb(19.999695%, 21.179199%, 22.749329%)" d="M 108.515625 187.667969 C 108.515625 215.292969 131.023438 237.777344 158.675781 237.777344 C 186.34375 237.777344 208.835938 215.292969 208.835938 187.667969 C 208.835938 160.046875 186.34375 137.5625 158.675781 137.5625 C 131.023438 137.5625 108.515625 160.046875 108.515625 187.667969 Z M 117.253906 187.667969 C 117.253906 166.320312 133.511719 148.703125 154.3125 146.519531 L 154.3125 228.820312 C 133.511719 226.632812 117.253906 209.019531 117.253906 187.667969 Z M 200.113281 187.667969 C 200.113281 209.019531 183.84375 226.632812 163.039062 228.820312 L 163.039062 146.519531 C 183.84375 148.703125 200.113281 166.320312 200.113281 187.667969 Z M 200.113281 187.667969 " fill-opacity="1" fill-rule="nonzero"/><path fill="rgb(65.489197%, 73.329163%, 75.689697%)" d="M 163.917969 172.550781 C 172.289062 172.550781 179.066406 179.324219 179.066406 187.667969 C 179.066406 196.03125 172.289062 202.800781 163.917969 202.800781 C 155.5625 202.800781 148.785156 196.03125 148.785156 187.667969 C 148.785156 179.324219 155.5625 172.550781 163.917969 172.550781 Z M 163.917969 172.550781 " fill-opacity="1" fill-rule="nonzero"/><path fill="rgb(100%, 100%, 100%)" d="M 158.777344 172.550781 C 167.132812 172.550781 173.910156 179.324219 173.910156 187.667969 C 173.910156 196.03125 167.132812 202.800781 158.777344 202.800781 C 150.421875 202.800781 143.640625 196.03125 143.640625 187.667969 C 143.640625 179.324219 150.421875 172.550781 158.777344 172.550781 Z M 158.777344 172.550781 " fill-opacity="1" fill-rule="nonzero"/><path fill="rgb(84.709167%, 89.7995%, 91.758728%)" d="M 169.476562 198.371094 C 163.578125 204.261719 153.972656 204.261719 148.074219 198.371094 C 142.164062 192.453125 142.164062 182.886719 148.074219 176.980469 " fill-opacity="1" fill-rule="nonzero"/><path fill="rgb(19.999695%, 21.179199%, 22.749329%)" d="M 178.285156 187.667969 C 178.285156 192.878906 176.253906 197.777344 172.558594 201.453125 C 168.878906 205.128906 163.992188 207.15625 158.777344 207.15625 C 153.5625 207.15625 148.660156 205.128906 144.976562 201.453125 C 141.296875 197.761719 139.265625 192.863281 139.265625 187.667969 C 139.265625 182.460938 141.296875 177.5625 144.976562 173.886719 C 148.671875 170.210938 153.5625 168.179688 158.777344 168.179688 C 163.992188 168.179688 168.894531 170.210938 172.558594 173.898438 C 176.253906 177.578125 178.285156 182.460938 178.285156 187.667969 Z M 148.003906 187.667969 C 148.003906 190.550781 149.128906 193.246094 151.160156 195.277344 C 153.191406 197.320312 155.890625 198.429688 158.777344 198.429688 C 161.644531 198.429688 164.359375 197.320312 166.390625 195.292969 C 170.472656 191.21875 170.457031 184.121094 166.390625 180.0625 C 164.359375 178.03125 161.644531 176.910156 158.777344 176.910156 C 155.890625 176.910156 153.191406 178.03125 151.160156 180.0625 C 149.128906 182.089844 148.003906 184.800781 148.003906 187.667969 Z M 148.003906 187.667969 " fill-opacity="1" fill-rule="nonzero"/></svg>
